{
  "asset" : {
    "generator" : "UE Viewer (umodel) build 1590",
    "version" : "2.0"
  },
  "scene" : 0,
  "scenes" : [
    {
      "nodes" : [ 0 ]
    }
  ],
  "nodes" : [
    {
      "name" : "EnvObjMD_Bag_A_Put",
      "mesh" : 0
    }
  ],
  "materials" : [
    {
      "name" : "EnvObjMi_Bag_A",
      "pbrMetallicRoughness" : {
        "baseColorFactor" : [ 0.3, 0.3, 0.3, 1.0 ],
        "metallicFactor" : 0.1,
        "roughnessFactor" : 0.5
      }
    }
  ],
  "meshes" : [
    {
      "primitives" : [
        {
          "attributes" : {
            "POSITION" : 1,
            "NORMAL" : 2,
            "TANGENT" : 3,
            "TEXCOORD_0" : 4
          },
          "indices" : 0,
          "material" : 0
        }
      ],
      "name" : "EnvObjMD_Bag_A_Put"
    }
  ],
  "buffers" : [
    {
      "uri" : "EnvObjMD_Bag_A_Put.bin",
      "byteLength" : 4620
    }
  ],
  "bufferViews" : [
    {
      "buffer" : 0,
      "byteOffset" : 0,
      "byteLength" : 780
    },
    {
      "buffer" : 0,
      "byteOffset" : 780,
      "byteLength" : 960
    },
    {
      "buffer" : 0,
      "byteOffset" : 1740,
      "byteLength" : 960
    },
    {
      "buffer" : 0,
      "byteOffset" : 2700,
      "byteLength" : 1280
    },
    {
      "buffer" : 0,
      "byteOffset" : 3980,
      "byteLength" : 640
    }
  ],
  "accessors" : [
    {
      "bufferView" : 0,
      "componentType" : 5123,
      "count" : 390,
      "type" : "SCALAR"
    },
    {
      "bufferView" : 1,
      "min" : [ -0.523948, -0.0214856, -0.440371 ],
      "max" : [ 0.635131, 0.348196, 0.440417 ],
      "componentType" : 5126,
      "count" : 80,
      "type" : "VEC3"
    },
    {
      "bufferView" : 2,
      "componentType" : 5126,
      "count" : 80,
      "type" : "VEC3"
    },
    {
      "bufferView" : 3,
      "componentType" : 5126,
      "count" : 80,
      "type" : "VEC4"
    },
    {
      "bufferView" : 4,
      "componentType" : 5126,
      "count" : 80,
      "type" : "VEC2"
    }
  ]
}
