{
  "asset" : {
    "generator" : "UE Viewer (umodel) build 1590",
    "version" : "2.0"
  },
  "scene" : 0,
  "scenes" : [
    {
      "nodes" : [ 0 ]
    }
  ],
  "nodes" : [
    {
      "name" : "EnvObjMD_Bag_A_Open",
      "mesh" : 0
    }
  ],
  "materials" : [
    {
      "name" : "EnvObjMi_Bag_A",
      "pbrMetallicRoughness" : {
        "baseColorFactor" : [ 0.3, 0.3, 0.3, 1.0 ],
        "metallicFactor" : 0.1,
        "roughnessFactor" : 0.5
      }
    }
  ],
  "meshes" : [
    {
      "primitives" : [
        {
          "attributes" : {
            "POSITION" : 1,
            "NORMAL" : 2,
            "TANGENT" : 3,
            "TEXCOORD_0" : 4
          },
          "indices" : 0,
          "material" : 0
        }
      ],
      "name" : "EnvObjMD_Bag_A_Open"
    }
  ],
  "buffers" : [
    {
      "uri" : "EnvObjMD_Bag_A_Open.bin",
      "byteLength" : 3084
    }
  ],
  "bufferViews" : [
    {
      "buffer" : 0,
      "byteOffset" : 0,
      "byteLength" : 444
    },
    {
      "buffer" : 0,
      "byteOffset" : 444,
      "byteLength" : 660
    },
    {
      "buffer" : 0,
      "byteOffset" : 1104,
      "byteLength" : 660
    },
    {
      "buffer" : 0,
      "byteOffset" : 1764,
      "byteLength" : 880
    },
    {
      "buffer" : 0,
      "byteOffset" : 2644,
      "byteLength" : 440
    }
  ],
  "accessors" : [
    {
      "bufferView" : 0,
      "componentType" : 5123,
      "count" : 222,
      "type" : "SCALAR"
    },
    {
      "bufferView" : 1,
      "min" : [ -0.270912, -0.00495043, -0.41951 ],
      "max" : [ 0.0337179, 0.945384, 0.431559 ],
      "componentType" : 5126,
      "count" : 55,
      "type" : "VEC3"
    },
    {
      "bufferView" : 2,
      "componentType" : 5126,
      "count" : 55,
      "type" : "VEC3"
    },
    {
      "bufferView" : 3,
      "componentType" : 5126,
      "count" : 55,
      "type" : "VEC4"
    },
    {
      "bufferView" : 4,
      "componentType" : 5126,
      "count" : 55,
      "type" : "VEC2"
    }
  ]
}
